<svg version="1.1" id="Logo" xmlns="http://www.w3.org/2000/svg" xmlns:xlink="http://www.w3.org/1999/xlink" x="0px" y="0px" viewBox="0 0 227.3 222" style="enable-background:new 0 0 227.3 222;" xml:space="preserve"><style type="text/css">.header-svg-fill{fill:#005c90}</style><g>
<path class="header-svg-fill" d="M48.4,69.4c1,0,2-0.5,2.6-1.4c13.9-20.6,37.4-34.2,64.1-34.2c26.7,0,50.2,13.6,64.1,34.2
c0.6,0.9,1.5,1.4,2.6,1.4h8.2c2.4,0,3.9-2.6,2.6-4.7c-15.8-26.3-44.6-44-77.5-44s-61.7,17.7-77.5,44c-1.2,2.1,0.2,4.7,2.6,4.7H48.4
z"></path>
<path class="header-svg-fill" d="M183.1,150.6c-1.1,0-2.1,0.6-2.6,1.5c-13.7,21.7-37.9,36.1-65.3,36.1c-27.5,0-51.6-14.4-65.3-36.1
c-0.6-0.9-1.6-1.5-2.6-1.5h-8c-2.4,0-3.9,2.6-2.7,4.6c15.5,27.4,45,46,78.7,46c33.7,0,63.2-18.6,78.7-46c1.2-2.1-0.3-4.6-2.7-4.6
H183.1z"></path>
<path class="header-svg-fill" d="M83.6,139.2h-7.9c-1.7,0-3-1.5-3-3.2v-54c0-1.7,1.5-2.9,3.2-2.9h7.8c1.7,0,3.2,1.2,3.2,2.9v54.3
C86.8,138,85.3,139.2,83.6,139.2"></path>
<path class="header-svg-fill" d="M137,139.2H98.5c-1.7,0-3-1.2-3-2.9v-7.8c0-1.7,1.4-3,3-3h35.4c3.5,0,6.1-0.8,6.1-4.7c0-4.1-2.9-4.7-6.4-4.7
h-21.8c-12.3,0-17.2-6.4-17.2-18.1c0-12.2,4.4-18.8,17.2-18.8H146c1.7,0,3.2,1.2,3.2,2.9v7.8c0,1.7-1.5,3-3.2,3h-31
c-3.5,0-6.1,0.8-6.1,4.7c0,4.1,2.7,4.7,6.3,4.7H137c12.3,0,17.2,6.4,17.2,18.1C154.2,132.7,149.8,139.2,137,139.2"></path>
<path class="header-svg-fill" d="M204.7,78.9h-25.3c-12.9,0-17.3,6.6-17.3,18.9v38.3c0,1.7,1.4,3.2,3.1,3.2h8.1c1.7,0,3.1-1.5,3.1-3.2V97.5
c0-4,2.6-4.8,6.1-4.8h19.2c3.4,0,6.1,0.8,6.1,4.8v7.7H189v0h-0.1v0h-4.5c-1.7,0-2.9,1.5-2.9,3.1v7.5c0,1.6,1.2,3.1,2.9,3.1h4.5v0.1
h18.8v17.2c0,1.7,1.2,3.2,3.1,3.2h8c1.8,0,3.2-1.5,3.2-3.2V97.8C222,85.5,217.6,78.9,204.7,78.9z"></path>
<path class="header-svg-fill" d="M46,79.2H9.2c-1.7,0-2.9,1.5-2.9,3.1v7.5c0,1.6,1.2,3.1,2.9,3.1l30,0c13.6,0,13.7,7.6,13.7,16.3
c0,7.9-0.5,16.6-13.8,16.6l-18.9,0l0-25c0-1.7-1.5-2.9-3.2-2.9H9.2c-1.7,0-3.2,1.2-3.2,2.9l0,35.3c0,1.7,1.4,3.2,3,3.2H46
c15,0,20.8-16.6,20.8-30.4C66.8,95.7,60.9,79.2,46,79.2z"></path>
</g>
</svg>